<svg xmlns="http://www.w3.org/2000/svg" width="131.5" height="87.5" viewBox="0 0 131.5 87.5">
  <g id="Grupo_316" data-name="Grupo 316" transform="translate(-7079.5 -5214.962)">
    <path id="Trazado_145" data-name="Trazado 145" d="M75.948,32.156H52.191a1.706,1.706,0,0,1-1.706-1.706V6.693a1.706,1.706,0,0,1,1.706-1.707H75.948a1.706,1.706,0,0,1,1.706,1.707V30.45a1.706,1.706,0,0,1-1.706,1.706" transform="translate(7094.105 5250.207) rotate(-21)" fill="#404040"/>
    <path id="Trazado_319" data-name="Trazado 319" d="M5.278,0H77.116a5.278,5.278,0,0,1,5.278,5.278V45.222A5.278,5.278,0,0,1,77.116,50.5H5.278A5.278,5.278,0,0,1,0,45.222V5.278A5.278,5.278,0,0,1,5.278,0Z" transform="translate(7095.397 5250.782) rotate(-21)" fill="none" stroke="#404040" stroke-linecap="round" stroke-width="2"/>
    <line id="Línea_16" data-name="Línea 16" x2="29.237" transform="translate(7104.105 5255.98) rotate(-21)" fill="none" stroke="#404040" stroke-linecap="round" stroke-miterlimit="10" stroke-width="2"/>
    <line id="Línea_17" data-name="Línea 17" x2="72.206" transform="translate(7113.806 5284.522) rotate(-21)" fill="none" stroke="#404040" stroke-linecap="round" stroke-miterlimit="10" stroke-width="2"/>
    <line id="Línea_18" data-name="Línea 18" x2="72.206" transform="translate(7116.134 5290.588) rotate(-21)" fill="none" stroke="#404040" stroke-linecap="round" stroke-miterlimit="10" stroke-width="2"/>
    <path id="Trazado_157" data-name="Trazado 157" d="M1.5,25.5V1.5h24" transform="translate(7079.5 5214.962)" fill="none" stroke="#ef7f11" stroke-linecap="round" stroke-miterlimit="10" stroke-width="3"/>
    <path id="Trazado_158" data-name="Trazado 158" d="M130,26V2H106" transform="translate(7079.5 5214.962)" fill="none" stroke="#ef7f11" stroke-linecap="round" stroke-miterlimit="10" stroke-width="3"/>
    <path id="Trazado_159" data-name="Trazado 159" d="M1.5,62V86h24" transform="translate(7079.5 5214.962)" fill="none" stroke="#ef7f11" stroke-linecap="round" stroke-miterlimit="10" stroke-width="3"/>
    <path id="Trazado_160" data-name="Trazado 160" d="M130,61.5v24H106" transform="translate(7079.5 5214.962)" fill="none" stroke="#ef7f11" stroke-linecap="round" stroke-miterlimit="10" stroke-width="3"/>
    <path id="Trazado_161" data-name="Trazado 161" d="M11.8,40.355a11.5,11.5,0,0,1,7.91-14.21" transform="translate(7079.5 5214.962)" fill="none" stroke="#a0a0a0" stroke-linecap="round" stroke-miterlimit="10" stroke-width="2"/>
    <path id="Trazado_162" data-name="Trazado 162" d="M119.5,49.5A11.5,11.5,0,0,1,108,61" transform="translate(7079.5 5214.962)" fill="none" stroke="#a0a0a0" stroke-linecap="round" stroke-miterlimit="10" stroke-width="2"/>
  </g>
</svg>
