<svg id="Grupo_82" data-name="Grupo 82" xmlns="http://www.w3.org/2000/svg" xmlns:xlink="http://www.w3.org/1999/xlink" width="84.395" height="52.5" viewBox="0 0 84.395 52.5">
  <defs>
    <clipPath id="clip-path">
      <rect id="Rectángulo_97" data-name="Rectángulo 97" width="84.395" height="52.5" fill="none" stroke="#000" stroke-width="1"/>
    </clipPath>
  </defs>
  <g id="Grupo_81" data-name="Grupo 81" clip-path="url(#clip-path)">
    <path id="Trazado_145" data-name="Trazado 145" d="M75.948,32.156H52.191a1.706,1.706,0,0,1-1.706-1.706V6.693a1.706,1.706,0,0,1,1.706-1.707H75.948a1.706,1.706,0,0,1,1.706,1.707V30.45a1.706,1.706,0,0,1-1.706,1.706" fill="#ef7f11"/>
    <path id="Trazado_319" data-name="Trazado 319" d="M5.278,0H77.116a5.278,5.278,0,0,1,5.278,5.278V45.222A5.278,5.278,0,0,1,77.116,50.5H5.278A5.278,5.278,0,0,1,0,45.222V5.278A5.278,5.278,0,0,1,5.278,0Z" transform="translate(1 1)" fill="none" stroke="#404040" stroke-linecap="round" stroke-width="2"/>
    <line id="Línea_16" data-name="Línea 16" x2="29.237" transform="translate(7.267 8.974)" fill="none" stroke="#404040" stroke-linecap="round" stroke-miterlimit="10" stroke-width="2"/>
    <line id="Línea_17" data-name="Línea 17" x2="72.206" transform="translate(6.094 39.097)" fill="none" stroke="#404040" stroke-linecap="round" stroke-miterlimit="10" stroke-width="2"/>
    <line id="Línea_18" data-name="Línea 18" x2="72.206" transform="translate(6.094 45.594)" fill="none" stroke="#404040" stroke-linecap="round" stroke-miterlimit="10" stroke-width="2"/>
  </g>
</svg>
